<svg width="18" height="12" viewBox="0 0 18 12" fill="none" xmlns="http://www.w3.org/2000/svg">
<path fill-rule="evenodd" clip-rule="evenodd" d="M17.6667 1.66675C17.6667 1.11446 17.219 0.666748 16.6667 0.666748H15.6667C15.1144 0.666748 14.6667 1.11446 14.6667 1.66675V10.3334C14.6667 10.8857 15.1144 11.3334 15.6667 11.3334H16.6667C17.219 11.3334 17.6667 10.8857 17.6667 10.3334V1.66675ZM11 3.00008H12C12.5523 3.00008 13 3.4478 13 4.00008V10.3334C13 10.8857 12.5523 11.3334 12 11.3334H11C10.4477 11.3334 10 10.8857 10 10.3334V4.00008C10 3.4478 10.4477 3.00008 11 3.00008ZM7.33334 5.33341H6.33334C5.78105 5.33341 5.33334 5.78113 5.33334 6.33341V10.3334C5.33334 10.8857 5.78105 11.3334 6.33334 11.3334H7.33334C7.88562 11.3334 8.33334 10.8857 8.33334 10.3334V6.33341C8.33334 5.78113 7.88562 5.33341 7.33334 5.33341ZM3.66667 8.33341C3.66667 7.78113 3.21896 7.33341 2.66667 7.33341H1.66667C1.11439 7.33341 0.666672 7.78113 0.666672 8.33341V10.3334C0.666672 10.8857 1.11439 11.3334 1.66667 11.3334H2.66667C3.21896 11.3334 3.66667 10.8857 3.66667 10.3334V8.33341Z" fill="black"/>
</svg>
