<svg width="319" height="27" viewBox="0 0 319 27" fill="none" xmlns="http://www.w3.org/2000/svg">
<path fill-rule="evenodd" clip-rule="evenodd" d="M12.1643 1.34615C12.6259 0.884618 13.3741 0.884618 13.8357 1.34615L25.6539 13.1643C25.8755 13.386 26 13.6866 26 14V25.8182C26 26.4709 25.4709 27 24.8182 27H1.18182C0.529118 27 0 26.4709 0 25.8182V14C0 13.6866 0.124513 13.386 0.346147 13.1643L12.1643 1.34615ZM2.36364 14.4895V24.6364H9.45455V16.3636C9.45455 15.7109 9.98366 15.1818 10.6364 15.1818H17.7273C18.38 15.1818 18.9091 15.7109 18.9091 16.3636V24.6364H23.6364V14.4895L13 3.85316L2.36364 14.4895ZM16.5455 24.6364V17.5455H11.8182V24.6364H16.5455Z" fill="#151515"/>
<path fill-rule="evenodd" clip-rule="evenodd" d="M237 13C237 20.1797 231.18 26 224 26C216.82 26 211 20.1797 211 13C211 5.8203 216.82 0 224 0C231.18 0 237 5.8203 237 13ZM235 13C235 19.0751 230.075 24 224 24C217.925 24 213 19.0751 213 13C213 6.92487 217.925 2 224 2C230.075 2 235 6.92487 235 13Z" fill="#151515"/>
<path fill-rule="evenodd" clip-rule="evenodd" d="M224 6C224.552 6 225 6.44772 225 7V12H230C230.552 12 231 12.4477 231 13C231 13.5523 230.552 14 230 14H224C223.448 14 223 13.5523 223 13V7C223 6.44772 223.448 6 224 6Z" fill="#151515"/>
<path fill-rule="evenodd" clip-rule="evenodd" d="M93 3.16667C89.7365 3.16667 87.0909 5.59179 87.0909 8.58333C87.0909 11.5749 89.7365 14 93 14C96.2635 14 98.9091 11.5749 98.9091 8.58333C98.9091 5.59179 96.2635 3.16667 93 3.16667ZM97.7223 14.8106C99.8683 13.4406 101.273 11.1623 101.273 8.58333C101.273 4.39517 97.5689 1 93 1C88.4311 1 84.7273 4.39517 84.7273 8.58333C84.7273 11.1623 86.1317 13.4406 88.2777 14.8106C83.4327 16.5429 80 20.8623 80 25.9167C80 26.515 80.5291 27 81.1818 27C81.8345 27 82.3636 26.515 82.3636 25.9167C82.3636 20.5319 87.1257 16.1667 93 16.1667C98.8743 16.1667 103.636 20.5319 103.636 25.9167C103.636 26.515 104.165 27 104.818 27C105.471 27 106 26.515 106 25.9167C106 20.8623 102.567 16.5429 97.7223 14.8106Z" fill="#151515"/>
<path fill-rule="evenodd" clip-rule="evenodd" d="M311.819 13C311.819 16.2138 309.214 18.8191 306 18.8191C302.786 18.8191 300.181 16.2138 300.181 13C300.181 9.78619 302.786 7.18088 306 7.18088C309.214 7.18088 311.819 9.78619 311.819 13ZM309.491 13C309.491 14.9283 307.928 16.4915 306 16.4915C304.072 16.4915 302.509 14.9283 302.509 13C302.509 11.0717 304.072 9.50853 306 9.50853C307.928 9.50853 309.491 11.0717 309.491 13Z" fill="#151515"/>
<path fill-rule="evenodd" clip-rule="evenodd" d="M309.326 2.65879C308.526 -0.886262 303.474 -0.886263 302.674 2.65879C302.509 3.38812 301.672 3.73479 301.04 3.33557C297.967 1.39507 294.395 4.96679 296.336 8.03975C296.735 8.67195 296.388 9.5089 295.659 9.67364C292.114 10.4744 292.114 15.5256 295.659 16.3264C296.388 16.4911 296.735 17.328 296.336 17.9603C294.395 21.0332 297.967 24.6049 301.04 22.6644C301.672 22.2652 302.509 22.6119 302.674 23.3412C303.474 26.8863 308.526 26.8863 309.326 23.3412C309.491 22.6119 310.328 22.2652 310.96 22.6644C314.033 24.6049 317.605 21.0332 315.664 17.9603C315.265 17.328 315.612 16.4911 316.341 16.3264C319.886 15.5256 319.886 10.4744 316.341 9.67364C315.612 9.5089 315.265 8.67195 315.664 8.03975C317.605 4.96679 314.033 1.39507 310.96 3.33557C310.328 3.73479 309.491 3.38812 309.326 2.65879ZM304.944 3.17165C305.198 2.04632 306.802 2.04632 307.056 3.17165C307.575 5.4692 310.211 6.5613 312.203 5.30366C313.179 4.68768 314.312 5.82147 313.696 6.79695C312.439 8.78854 313.531 11.4251 315.828 11.9441C316.954 12.1983 316.954 13.8017 315.828 14.0559C313.531 14.5749 312.439 17.2115 313.696 19.2031C314.312 20.1785 313.179 21.3123 312.203 20.6963C310.211 19.4387 307.575 20.5308 307.056 22.8284C306.802 23.9537 305.198 23.9537 304.944 22.8284C304.425 20.5308 301.789 19.4387 299.797 20.6963C298.821 21.3123 297.688 20.1785 298.304 19.2031C299.561 17.2115 298.469 14.5749 296.172 14.0559C295.046 13.8017 295.046 12.1983 296.172 11.9441C298.469 11.4251 299.561 8.78854 298.304 6.79695C297.688 5.82147 298.821 4.68768 299.797 5.30366C301.789 6.5613 304.425 5.4692 304.944 3.17165Z" fill="#151515"/>
</svg>
