<svg width="54" height="54" viewBox="0 0 54 54" fill="none" xmlns="http://www.w3.org/2000/svg">
<g clip-path="url(#clip0_45_54)">
<path fill-rule="evenodd" clip-rule="evenodd" d="M11.7504 11.7642H22.8623V22.8032H11.7504V11.7642ZM15.7098 6.5214e-06H10.1605C8.83468 -0.00150544 7.52175 0.259905 6.29803 0.769049C5.06479 1.27875 3.94397 2.02532 2.99928 2.96632C2.05647 3.90914 1.3083 5.02745 0.797174 6.25782C0.274971 7.48535 0.00394121 8.80465 1.25764e-05 10.1382V16.9805H4.50552V10.1382C4.51015 9.39862 4.65976 8.66711 4.94594 7.98487C5.22682 7.29937 5.64152 6.67645 6.1659 6.15235C7.22593 5.09648 8.66272 4.50374 10.1605 4.5044H15.7098V6.5214e-06ZM43.8395 6.5214e-06H40.2148V4.49561H43.8395C44.5807 4.50068 45.3137 4.64995 45.9976 4.93507C46.6822 5.21983 47.3056 5.63307 47.8341 6.15235L47.9883 6.31055C48.4433 6.80306 48.8085 7.37119 49.0673 7.98926C49.3555 8.66935 49.5052 9.39983 49.5077 10.1382V16.9805H54.0132V10.1382C54.0143 7.52749 53.0008 5.01809 51.1857 3.1377L51.0228 2.9751C50.0779 2.03437 48.9571 1.28784 47.724 0.777839C46.4939 0.263385 45.1733 -0.00105219 43.8395 6.5214e-06ZM54 43.8618V36.2637H49.4945V43.8618C49.492 44.6002 49.3422 45.3307 49.0541 46.0107C48.7655 46.6953 48.3468 47.3177 47.8209 47.8433C47.2981 48.3685 46.6765 48.7856 45.9917 49.0707C45.307 49.3558 44.5726 49.5031 43.8307 49.5044H40.2148V54H43.8395C45.1731 53.999 46.4933 53.7353 47.7245 53.224C48.9556 52.7127 50.0735 51.9639 51.014 51.0205C51.9552 50.0764 52.7031 48.9584 53.2161 47.729C53.7249 46.5029 53.9868 45.1889 53.9868 43.8618H54ZM10.1605 54H15.7098V49.5044H10.1605C9.41785 49.5037 8.68262 49.3566 7.9971 49.0715C7.31157 48.7865 6.68926 48.3691 6.1659 47.8433L6.05139 47.7378C5.55762 47.2184 5.1675 46.6099 4.9019 45.9448C4.63609 45.2824 4.50003 44.5753 4.50111 43.8618V36.2637H1.25764e-05V43.8618C-0.00204245 45.1529 0.24777 46.4321 0.735515 47.6279C1.22163 48.8351 1.9381 49.9365 2.84513 50.8711L2.98166 51.0249C3.92816 51.9658 5.05039 52.7123 6.28482 53.2222C7.51305 53.7317 8.83037 53.9931 10.1605 53.9912V54ZM39.4573 39.4541H42.2804V42.2358H39.4573V39.4541ZM34.0137 39.4541H36.85V42.0908H31.1818V36.6812H33.9124V33.9346H36.7047V28.459H39.5498V31.1484H42.2452V33.9302H39.5498V36.7119H34.0137V39.4497V39.4541ZM25.6061 33.8906H28.3499V31.1089H25.7074V28.3272H28.3499V25.5454H25.6501V28.3272H22.8138V25.5454H25.6017V17.2837H28.4336V25.541H31.1774V28.3228H33.8772V25.541H36.7091V28.3228H34.0137V31.1045H31.1818V36.5801H28.438V42.104H25.6061V33.8906ZM39.4133 25.541H42.2452V28.3228H39.4133V25.541ZM17.2865 25.541H20.1184V28.3228H17.2865V25.541ZM11.7504 25.541H14.5823V28.3228H11.7504V25.541ZM25.6061 11.7642H28.438V14.5459H25.6061V11.7642ZM11.7064 31.1484H22.8138V42.1875H11.7064V31.1484ZM14.4062 33.8379H20.1316V39.5112H14.4062V33.8379ZM31.1422 11.7686H42.2452V22.8032H31.1378V11.7642L31.1422 11.7686ZM33.8419 14.4492H39.5674V20.1226H33.8419V14.4448V14.4492ZM14.4634 14.4492H20.1889V20.1226H14.4634V14.4448V14.4492Z" fill="white"/>
</g>
<defs>
<clipPath id="clip0_45_54">
<rect width="54" height="54" fill="white"/>
</clipPath>
</defs>
</svg>
