<svg width="19" height="14" viewBox="0 0 19 14" fill="none" xmlns="http://www.w3.org/2000/svg">
<path fill-rule="evenodd" clip-rule="evenodd" d="M11.6923 0.777778C11.6923 0.348223 12.0195 0 12.4231 0H15.3462C17.3641 0 19 1.74111 19 3.88889V10.1111C19 12.2589 17.3641 14 15.3462 14H12.4231C12.0195 14 11.6923 13.6518 11.6923 13.2222C11.6923 12.7927 12.0195 12.4444 12.4231 12.4444H15.3462C16.5569 12.4444 17.5385 11.3998 17.5385 10.1111V3.88889C17.5385 2.60022 16.5569 1.55556 15.3462 1.55556H12.4231C12.0195 1.55556 11.6923 1.20733 11.6923 0.777778ZM6.06019 1.78336C6.34557 1.47962 6.80827 1.47962 7.09365 1.78336L11.4783 6.45003C11.7637 6.75377 11.7637 7.24623 11.4783 7.54997L7.09365 12.2166C6.80827 12.5204 6.34557 12.5204 6.06019 12.2166C5.77481 11.9129 5.77481 11.4204 6.06019 11.1167L9.19731 7.77778H0.730769C0.327177 7.77778 0 7.42956 0 7C0 6.57045 0.327177 6.22222 0.730769 6.22222H9.19731L6.06019 2.88331C5.77481 2.57956 5.77481 2.0871 6.06019 1.78336Z" fill="#151515"/>
</svg>
