<svg width="16" height="12" viewBox="0 0 16 12" fill="none" xmlns="http://www.w3.org/2000/svg">
<path fill-rule="evenodd" clip-rule="evenodd" d="M8.33376 2.57382C10.5585 2.57391 12.6982 3.4116 14.3105 4.91376C14.4319 5.02973 14.626 5.02826 14.7456 4.91048L15.9062 3.76264C15.9667 3.7029 16.0005 3.62198 16 3.53778C15.9995 3.45358 15.9648 3.37305 15.9035 3.314C11.6716 -0.660332 4.99525 -0.660332 0.763329 3.314C0.702026 3.373 0.667244 3.45351 0.666679 3.53771C0.666113 3.62191 0.699812 3.70286 0.760317 3.76264L1.92127 4.91048C2.04077 5.02844 2.23499 5.02991 2.35633 4.91376C3.96889 3.41151 6.1088 2.57381 8.33376 2.57382ZM8.33215 6.29937C9.55588 6.29929 10.7359 6.7559 11.643 7.58046C11.7657 7.69748 11.959 7.69494 12.0786 7.57474L13.2392 6.39758C13.3003 6.33583 13.3342 6.25207 13.3333 6.16503C13.3324 6.07799 13.2968 5.99494 13.2345 5.93445C10.4722 3.35507 6.19445 3.35507 3.43217 5.93445C3.36977 5.99494 3.33417 6.07803 3.33335 6.1651C3.33253 6.25217 3.36656 6.33592 3.42781 6.39758L4.58806 7.57474C4.70766 7.69494 4.90093 7.69748 5.02362 7.58046C5.93011 6.75644 7.10923 6.29988 8.33215 6.29937ZM10.6666 9.02296C10.6684 9.10841 10.6341 9.1908 10.5718 9.25067L8.55703 11.2418C8.49797 11.3003 8.41744 11.3333 8.33343 11.3333C8.24941 11.3333 8.16889 11.3003 8.10983 11.2418L6.09473 9.25067C6.03247 9.19076 5.99823 9.10834 6.00008 9.02289C6.00192 8.93744 6.03969 8.85651 6.10448 8.79923C7.39118 7.73348 9.27567 7.73348 10.5624 8.79923C10.6271 8.85656 10.6648 8.93751 10.6666 9.02296Z" fill="black"/>
</svg>
