<svg width="16" height="12" viewBox="0 0 16 12" fill="none" xmlns="http://www.w3.org/2000/svg">
<path fill-rule="evenodd" clip-rule="evenodd" d="M8.33376 2.57394C10.5585 2.57403 12.6982 3.41173 14.3105 4.91388C14.4319 5.02985 14.626 5.02839 14.7456 4.9106L15.9062 3.76277C15.9667 3.70302 16.0005 3.6221 16 3.5379C15.9995 3.4537 15.9648 3.37317 15.9035 3.31413C11.6716 -0.66021 4.99525 -0.66021 0.763329 3.31413C0.702026 3.37313 0.667244 3.45363 0.666679 3.53783C0.666113 3.62203 0.699812 3.70298 0.760317 3.76277L1.92127 4.9106C2.04077 5.02856 2.23499 5.03003 2.35633 4.91388C3.96889 3.41163 6.1088 2.57393 8.33376 2.57394ZM8.33215 6.29949C9.55588 6.29942 10.7359 6.75602 11.643 7.58058C11.7657 7.6976 11.959 7.69507 12.0786 7.57486L13.2392 6.3977C13.3003 6.33596 13.3342 6.25219 13.3333 6.16515C13.3324 6.07811 13.2968 5.99506 13.2345 5.93457C10.4722 3.3552 6.19445 3.3552 3.43217 5.93457C3.36977 5.99506 3.33417 6.07815 3.33335 6.16522C3.33253 6.25229 3.36656 6.33604 3.42781 6.3977L4.58806 7.57486C4.70766 7.69507 4.90093 7.6976 5.02362 7.58058C5.93011 6.75656 7.10923 6.3 8.33215 6.29949ZM10.6666 9.02308C10.6684 9.10854 10.6341 9.19092 10.5718 9.25079L8.55703 11.2419C8.49797 11.3004 8.41744 11.3334 8.33343 11.3334C8.24941 11.3334 8.16889 11.3004 8.10983 11.2419L6.09473 9.25079C6.03247 9.19088 5.99823 9.10847 6.00008 9.02301C6.00192 8.93756 6.03969 8.85664 6.10448 8.79935C7.39118 7.7336 9.27567 7.7336 10.5624 8.79935C10.6271 8.85668 10.6648 8.93763 10.6666 9.02308Z" fill="black"/>
</svg>
